<?xml version="1.0" standalone="no"?>
<!DOCTYPE svg PUBLIC "-//W3C//DTD SVG 20010904//EN"
 "http://www.w3.org/TR/2001/REC-SVG-20010904/DTD/svg10.dtd">
<svg version="1.0" xmlns="http://www.w3.org/2000/svg"
 width="490.000000pt" height="388.000000pt" viewBox="0 0 490.000000 388.000000"
 preserveAspectRatio="xMidYMid meet">

<g transform="translate(0.000000,388.000000) scale(0.100000,-0.100000)"
fill="#000000" stroke="none">
<path d="M2320 3300 c-19 -5 -55 -12 -80 -15 -135 -15 -283 -71 -335 -125 -16
-17 -33 -30 -38 -30 -6 0 -28 -15 -51 -33 -23 -18 -60 -45 -83 -61 -23 -15
-49 -38 -57 -50 -34 -49 -75 -85 -119 -106 -54 -25 -110 -83 -132 -136 -8 -21
-18 -84 -21 -143 -3 -58 -8 -109 -10 -112 -2 -4 -1 -21 2 -39 8 -36 24 -22 24
21 0 14 7 34 15 45 15 18 16 16 10 -26 -19 -154 -20 -180 -9 -257 7 -45 10
-93 8 -105 -2 -13 -2 -17 2 -10 9 19 24 4 24 -25 0 -18 -4 -24 -14 -20 -30 12
-39 -20 -32 -106 8 -86 16 -117 62 -231 26 -66 28 -69 37 -43 5 15 15 27 23
27 8 0 14 10 14 26 0 14 -4 23 -9 19 -12 -7 -68 41 -59 51 5 4 16 -3 27 -14
10 -12 21 -22 23 -22 10 0 20 110 28 320 9 227 19 281 72 383 26 49 152 167
180 167 9 0 23 12 30 28 14 29 61 43 81 23 17 -17 30 -13 24 8 -5 20 27 41 62
41 10 0 30 9 44 20 14 11 29 20 34 20 4 0 21 11 37 25 30 26 56 33 56 15 0
-17 17 -11 67 20 26 17 91 44 143 61 90 29 101 31 205 25 61 -4 129 -6 153 -6
23 0 57 -7 75 -16 17 -9 40 -21 50 -26 115 -57 149 -78 190 -119 l47 -47 0
-85 c0 -47 3 -92 6 -101 4 -11 1 -16 -10 -16 -9 0 -21 -11 -26 -25 -10 -27 -2
-123 11 -131 10 -6 12 -54 2 -54 -3 0 -14 6 -22 14 -29 26 -194 86 -236 86
-125 -1 -217 -13 -274 -38 -20 -8 -44 -16 -53 -17 -24 -2 -27 -6 -34 -45 -6
-25 -4 -31 6 -25 7 4 15 4 19 -1 21 -29 86 -37 116 -13 24 18 152 31 251 26
105 -6 132 -14 170 -49 22 -20 22 -20 40 11 10 17 21 31 25 31 8 0 40 -36 55
-63 68 -122 88 -187 114 -377 16 -119 17 -121 46 -85 13 17 24 25 24 18 0 -6
-4 -15 -10 -18 -5 -3 -10 -21 -10 -40 0 -19 5 -37 10 -40 19 -12 11 -73 -11
-88 -22 -16 -46 -74 -59 -147 -5 -25 -18 -87 -29 -138 -11 -51 -24 -122 -27
-159 -10 -94 8 -81 69 50 42 90 48 111 39 130 -21 43 -21 79 -1 84 22 6 25 43
7 72 -9 15 -7 24 13 49 13 17 31 31 40 31 12 1 18 15 22 58 3 32 11 59 17 61
5 2 10 21 10 43 0 30 4 39 18 39 11 0 28 23 50 65 33 67 40 95 22 95 -5 0 -10
7 -10 15 0 8 7 15 15 15 15 0 14 20 -1 69 -3 8 -7 46 -10 85 -3 39 -9 85 -14
101 -20 71 -32 199 -25 253 12 87 10 150 -6 229 -16 74 -24 86 -127 198 -54
58 -114 105 -134 105 -17 0 -33 35 -26 56 3 9 -37 54 -49 54 -3 0 -27 13 -52
29 -26 17 -68 32 -96 36 -27 4 -63 13 -80 20 -16 6 -55 20 -85 30 -30 10 -66
26 -79 36 -13 11 -40 24 -60 29 -48 15 -317 22 -361 10z m-830 -778 c0 -13
-12 -22 -22 -16 -10 6 -1 24 13 24 5 0 9 -4 9 -8z m-13 -54 c-3 -8 -6 -5 -6 6
-1 11 2 17 5 13 3 -3 4 -12 1 -19z m1898 -118 c-7 -22 -25 -27 -25 -7 0 6 3
23 7 36 5 20 7 21 15 7 5 -9 6 -25 3 -36z m-9 -128 c-13 -12 -17 8 -10 40 l9
33 3 -33 c2 -19 1 -36 -2 -40z m80 -199 c-11 -11 -19 6 -11 24 8 17 8 17 12 0
3 -10 2 -21 -1 -24z m14 -67 c0 -2 -7 -9 -15 -16 -12 -10 -15 -10 -15 4 0 9 7
16 15 16 8 0 15 -2 15 -4z m-74 -76 c12 0 13 -4 3 -22 -12 -22 -12 -22 -20 -3
-4 11 -8 27 -8 35 1 10 2 11 6 3 2 -7 11 -13 19 -13z m-16 -64 c0 -3 -4 -8
-10 -11 -5 -3 -10 -1 -10 4 0 6 5 11 10 11 6 0 10 -2 10 -4z"/>
<path d="M1888 2673 c7 -3 16 -2 19 1 4 3 -2 6 -13 5 -11 0 -14 -3 -6 -6z"/>
<path d="M1890 2361 c-54 -5 -75 -13 -126 -48 -61 -43 -92 -82 -80 -102 5 -7
13 -8 24 -2 68 36 242 57 332 41 36 -6 86 -14 113 -17 47 -6 47 -5 47 24 0 78
-131 122 -310 104z"/>
<path d="M2855 2201 c24 -11 60 -49 53 -56 -3 -3 -17 -1 -32 5 -50 18 -171 12
-224 -12 -49 -22 -92 -55 -92 -71 0 -16 63 5 89 29 l26 24 25 -30 c33 -39 85
-55 117 -35 28 19 33 19 33 0 0 -9 -9 -15 -25 -15 -14 0 -25 -4 -25 -10 0 -5
19 -10 43 -10 23 0 62 -5 86 -11 53 -12 91 7 91 46 0 19 7 26 32 33 69 18 31
65 -77 96 -61 18 -149 31 -120 17z"/>
<path d="M2063 2136 c4 -11 -11 -15 -71 -17 -59 -3 -90 -11 -133 -32 -76 -37
-92 -34 -44 8 22 19 35 34 28 35 -36 1 -116 -55 -97 -68 6 -4 11 -18 10 -31
-2 -40 53 -64 128 -56 58 7 60 8 39 22 -13 9 -23 22 -23 29 0 18 8 18 27 -2
33 -32 133 0 133 43 0 18 13 16 44 -8 16 -13 37 -19 57 -17 l31 3 -23 29 -23
29 22 -5 c12 -4 22 -2 22 3 0 14 -36 29 -69 29 -16 0 -33 5 -36 10 -9 15 -28
12 -22 -4z"/>
<path d="M2537 2132 c-18 -20 -23 -52 -8 -52 5 0 21 16 35 35 24 32 25 35 8
35 -10 0 -26 -8 -35 -18z"/>
<path d="M2551 1774 c0 -11 3 -14 6 -6 3 7 2 16 -1 19 -3 4 -6 -2 -5 -13z"/>
<path d="M2548 1700 c-20 -26 -30 -31 -40 -23 -20 17 -88 28 -88 14 0 -6 -6
-11 -14 -11 -8 0 -16 -4 -18 -10 -4 -11 -78 -14 -130 -5 -34 6 -38 5 -38 -14
0 -12 -6 -21 -15 -21 -20 0 -19 -24 1 -45 15 -15 18 -14 40 6 21 19 26 20 53
9 18 -7 49 -10 78 -6 98 12 98 12 95 -8 -3 -16 1 -18 29 -12 71 14 101 62 81
130 l-8 29 -26 -33z"/>
<path d="M3322 1640 c0 -19 2 -27 5 -17 2 9 2 25 0 35 -3 9 -5 1 -5 -18z"/>
<path d="M3412 1504 c-20 -14 -31 -54 -14 -54 6 0 46 70 39 70 -1 0 -13 -7
-25 -16z"/>
<path d="M2428 1355 c-2 -3 -45 -8 -94 -11 -72 -4 -100 -11 -145 -35 -31 -16
-66 -29 -78 -29 -14 0 -21 -6 -21 -20 0 -16 7 -20 38 -20 20 0 51 7 67 16 20
11 64 18 130 20 156 7 195 6 262 -1 51 -6 68 -4 89 9 34 23 17 47 -30 39 -19
-3 -60 4 -100 16 -66 20 -108 26 -118 16z"/>
<path d="M1646 1234 c-5 -14 -4 -15 9 -4 17 14 19 20 6 20 -5 0 -12 -7 -15
-16z"/>
<path d="M2395 1180 c-22 -4 -44 -6 -48 -3 -5 3 -20 2 -34 -2 -24 -6 -25 -7
-8 -25 10 -11 24 -20 32 -20 7 0 22 -6 34 -12 17 -11 22 -10 30 5 6 9 23 24
40 32 16 9 27 20 24 25 -7 11 -13 11 -70 0z"/>
<path d="M2885 990 c-3 -5 -1 -10 4 -10 6 0 11 5 11 10 0 6 -2 10 -4 10 -3 0
-8 -4 -11 -10z"/>
<path d="M2830 961 c-6 -13 -21 -21 -35 -21 -19 0 -25 -5 -25 -21 0 -14 -6
-19 -17 -18 -26 4 -83 -11 -83 -22 0 -5 -12 -12 -27 -15 -16 -4 -39 -15 -52
-26 -13 -10 -31 -18 -40 -18 -9 0 -27 -7 -39 -16 -19 -13 -55 -16 -195 -17
-95 0 -183 3 -196 7 -34 12 -48 -8 -20 -28 23 -16 23 -16 2 -16 -12 0 -25 -4
-28 -10 -8 -14 20 -65 50 -88 14 -11 25 -24 25 -30 0 -13 56 -55 100 -75 23
-10 75 -17 149 -20 62 -3 116 -9 120 -13 11 -16 58 -33 78 -28 11 3 26 -3 38
-15 17 -20 19 -20 38 -4 18 17 20 17 41 -10 12 -15 28 -27 35 -27 8 0 10 -7 6
-20 -5 -15 -2 -20 14 -20 10 0 25 -2 33 -5 8 -3 30 15 53 45 22 27 45 50 52
50 7 0 13 6 13 14 0 25 59 66 94 66 41 0 71 21 63 44 -5 14 -3 16 13 11 18 -6
19 -1 19 72 0 43 3 104 6 135 5 44 2 63 -10 82 l-17 25 -45 -34 c-25 -19 -51
-35 -58 -35 -6 0 -20 -9 -30 -20 -17 -18 -20 -19 -35 -5 -16 14 -21 14 -52 -5
-32 -18 -68 -19 -68 -1 0 4 18 27 40 52 28 31 39 52 38 69 -4 31 -33 38 -48
11z m-72 -155 c-10 -7 -18 -18 -18 -25 0 -6 -7 -11 -15 -11 -22 0 -18 15 8 33
27 19 49 22 25 3z"/>
<path d="M3330 202 c0 -4 7 -18 16 -30 8 -12 12 -26 9 -32 -9 -14 28 -45 57
-47 22 -1 27 3 31 30 5 26 0 37 -24 60 -27 25 -89 39 -89 19z"/>
<path d="M1460 127 c-19 -13 -60 -32 -90 -42 -59 -19 -180 -73 -180 -81 0 -2
68 -4 150 -4 l150 0 0 61 c0 47 4 65 18 75 32 25 -10 16 -48 -9z"/>
<path d="M3578 91 c15 -14 22 -30 22 -55 l0 -36 157 0 c86 0 153 4 148 8 -6 5
-37 14 -70 21 -33 7 -70 17 -83 22 -13 5 -34 9 -47 9 -14 0 -49 11 -79 25 -65
30 -79 31 -48 6z"/>
<path d="M3516 78 c-17 -24 -22 -78 -7 -78 17 0 30 27 24 50 -5 19 -3 22 10
17 21 -8 22 6 3 22 -11 10 -17 7 -30 -11z"/>
</g>
</svg>
