<?xml version="1.0" standalone="no"?>
<!DOCTYPE svg PUBLIC "-//W3C//DTD SVG 20010904//EN"
 "http://www.w3.org/TR/2001/REC-SVG-20010904/DTD/svg10.dtd">
<svg version="1.0" xmlns="http://www.w3.org/2000/svg"
 width="225.000000pt" height="225.000000pt" viewBox="0 0 225.000000 225.000000"
 preserveAspectRatio="xMidYMid meet">

<g transform="translate(0.000000,225.000000) scale(0.100000,-0.100000)"
fill="#000000" stroke="none">
<path d="M0 1125 l0 -1125 1125 0 1125 0 0 1125 0 1125 -1125 0 -1125 0 0
-1125z m1988 513 c3 -17 -149 -251 -196 -300 -22 -24 -25 -35 -23 -88 3 -85
-22 -166 -68 -211 -82 -82 -232 -76 -279 12 -21 39 -9 169 21 223 l25 45 -53
57 -54 57 -53 -5 c-29 -3 -59 -3 -65 -1 -22 8 -14 57 16 104 36 58 76 89 113
89 57 0 188 -153 188 -219 0 -17 6 -20 44 -18 l45 2 21 58 c29 78 114 166 190
195 65 25 123 25 128 0z m-1295 -257 c84 -20 117 -88 97 -200 -23 -134 -90
-196 -212 -196 -80 0 -116 21 -136 81 -27 80 16 231 79 277 27 20 95 46 119
46 8 0 32 -3 53 -8z m-227 -43 c-9 -56 -11 -58 -61 -58 l-44 0 -10 -52 c-6
-29 -19 -93 -29 -143 l-17 -90 -57 -3 c-32 -2 -58 1 -58 6 0 5 11 64 25 132
14 68 25 129 25 136 0 10 -13 14 -40 14 -43 0 -46 6 -34 69 l7 31 150 0 150 0
-7 -42z m645 4 c22 -24 29 -43 30 -75 1 -38 3 -35 17 33 l17 75 58 3 c31 2 57
-1 57 -6 0 -5 -11 -64 -25 -132 -14 -68 -25 -129 -25 -136 0 -11 18 -14 75
-14 81 0 79 2 69 -62 l-7 -38 -138 0 c-77 0 -139 2 -139 4 0 2 9 48 20 101 25
122 25 139 0 98 -24 -41 -68 -63 -135 -70 l-52 -5 -14 -62 -14 -61 -59 -3
c-57 -3 -58 -2 -53 20 3 13 20 97 37 188 17 90 34 168 37 173 3 5 52 7 110 5
104 -3 105 -3 134 -36z m945 23 c85 -35 77 -178 -13 -220 -18 -9 -56 -19 -83
-22 -44 -5 -51 -9 -56 -32 -3 -14 -10 -43 -15 -63 l-10 -38 -54 0 c-47 0 -55
3 -55 18 0 28 59 324 70 350 9 20 16 22 95 22 53 0 99 -6 121 -15z m-736 -441
c0 -9 -10 -67 -21 -130 -15 -79 -26 -114 -35 -114 -8 0 -14 4 -14 10 0 5 -13
2 -29 -7 -27 -16 -30 -16 -55 0 -20 14 -26 26 -26 55 0 69 50 122 114 122 20
0 25 7 30 40 4 26 11 40 21 40 8 0 15 -7 15 -16z m380 -24 c0 -11 -6 -20 -14
-20 -18 0 -29 16 -21 30 11 18 35 11 35 -10z m-110 -30 c0 -14 7 -20 21 -20
11 0 17 -4 14 -10 -3 -5 -14 -10 -24 -10 -26 0 -49 -110 -26 -126 20 -15 19
-34 -2 -34 -38 0 -46 15 -40 73 4 30 10 62 13 71 4 11 0 16 -12 16 -16 0 -15
2 4 20 12 12 22 25 22 30 0 6 7 10 15 10 8 0 15 -9 15 -20z m-108 -15 c12 -5
12 -18 -1 -90 -10 -57 -19 -85 -28 -85 -7 0 -13 5 -13 10 0 6 -11 3 -25 -6
-32 -21 -73 -11 -85 20 -10 27 2 80 24 108 27 36 91 57 128 43z m386 -39 c4
-34 -16 -134 -29 -142 -20 -12 -22 7 -11 68 10 51 9 65 -2 76 -30 30 -67 -15
-81 -100 -4 -24 -11 -38 -20 -38 -19 0 -19 7 11 148 4 21 34 32 34 13 0 -6 12
-4 26 4 36 18 68 5 72 -29z m199 30 c2 -2 -3 -46 -13 -97 -14 -76 -22 -99 -45
-121 -27 -27 -67 -36 -103 -22 -29 11 -6 30 33 26 35 -4 41 -1 55 27 19 36 21
50 4 33 -18 -18 -63 -14 -83 8 -34 38 1 125 60 151 19 8 82 5 92 -5z m-380
-18 c-3 -13 -11 -51 -18 -86 -6 -34 -16 -65 -20 -68 -22 -13 -25 11 -12 78 19
96 20 98 39 98 12 0 15 -6 11 -22z"/>
<path d="M1800 1499 c-32 -13 -68 -47 -86 -81 -19 -37 -18 -41 15 -65 l28 -21
47 83 c25 46 46 86 46 89 0 9 -21 6 -50 -5z"/>
<path d="M1425 1470 c-7 -22 26 -100 50 -120 18 -15 65 14 65 41 0 25 -68 99
-90 99 -10 0 -22 -9 -25 -20z"/>
<path d="M1570 1265 c-21 -25 -40 -124 -30 -151 11 -29 49 -32 73 -6 20 22 40
100 35 138 -2 24 -8 29 -34 32 -19 2 -36 -3 -44 -13z"/>
<path d="M596 1265 c-17 -18 -40 -110 -35 -145 6 -36 61 -41 83 -8 20 32 36
128 25 150 -12 22 -52 23 -73 3z"/>
<path d="M956 1254 c-9 -33 -4 -38 29 -30 35 9 36 56 1 56 -17 0 -26 -7 -30
-26z"/>
<path d="M1937 1273 c-4 -3 -7 -17 -7 -30 0 -25 27 -32 48 -11 21 21 14 48
-11 48 -13 0 -27 -3 -30 -7z"/>
<path d="M1202 807 c-29 -31 -38 -79 -18 -96 31 -26 68 12 80 82 6 34 5 37
-17 37 -13 0 -33 -10 -45 -23z"/>
<path d="M1394 807 c-20 -17 -27 -33 -28 -63 -1 -35 1 -39 24 -39 26 0 50 37
64 98 5 22 3 27 -13 27 -11 0 -32 -10 -47 -23z"/>
<path d="M1963 808 c-41 -46 -40 -98 3 -98 28 0 50 30 59 83 7 34 6 37 -17 37
-14 0 -34 -10 -45 -22z"/>
</g>
</svg>
