<?xml version="1.0" standalone="no"?>
<!DOCTYPE svg PUBLIC "-//W3C//DTD SVG 20010904//EN"
 "http://www.w3.org/TR/2001/REC-SVG-20010904/DTD/svg10.dtd">
<svg version="1.0" xmlns="http://www.w3.org/2000/svg"
 width="540.000000pt" height="540.000000pt" viewBox="0 0 540.000000 540.000000"
 preserveAspectRatio="xMidYMid meet">

<g transform="translate(0.000000,540.000000) scale(0.100000,-0.100000)"
fill="#000000" stroke="none">
<path d="M2662 5030 c-19 -4 -39 -13 -45 -20 -9 -8 -5 -9 18 0 17 6 66 15 110
19 l80 8 -65 1 c-36 0 -80 -4 -98 -8z"/>
<path d="M2870 5020 c-8 -5 -28 -10 -43 -10 -16 0 -26 -4 -22 -10 3 -5 2 -10
-4 -10 -5 0 -33 -14 -61 -32 -40 -25 -53 -29 -60 -19 -6 11 -14 10 -38 -8 -17
-11 -36 -21 -44 -21 -10 0 -10 2 2 10 31 20 0 20 -38 0 -23 -12 -51 -20 -63
-18 -18 2 -11 10 40 47 63 46 82 67 32 34 -81 -51 -121 -84 -115 -95 5 -7 3
-8 -5 -3 -29 17 -208 -206 -230 -287 -9 -31 -22 -50 -47 -66 -45 -29 -71 -86
-82 -183 -12 -92 -8 -157 13 -219 16 -48 16 -49 -15 -115 -17 -36 -28 -70 -25
-75 4 -6 2 -10 -3 -10 -5 0 -12 -22 -16 -50 -4 -27 -10 -50 -14 -50 -4 0 -29
32 -55 71 -44 67 -107 231 -107 279 0 23 45 116 66 137 17 18 21 37 28 133 3
42 16 114 30 160 13 47 23 86 21 88 -1 2 -11 -17 -21 -42 -11 -25 -23 -46 -27
-46 -5 0 -5 -4 -2 -10 3 -5 0 -7 -9 -4 -9 3 -20 -3 -28 -15 -7 -12 -20 -21
-30 -21 -9 0 -20 -5 -24 -12 -5 -8 -10 -6 -14 8 -6 15 -10 11 -19 -23 -17 -63
-15 -227 3 -307 11 -46 13 -73 7 -79 -13 -13 -16 -5 -36 95 -35 175 -9 343 71
468 25 39 -138 -131 -169 -177 -83 -121 -73 -335 29 -580 36 -87 48 -157 20
-118 -22 32 -64 137 -90 228 -36 124 -49 235 -37 304 6 31 9 58 7 60 -2 2 -21
-25 -42 -59 l-39 -63 1 -125 c1 -153 25 -247 110 -419 49 -99 67 -124 133
-188 88 -86 169 -145 247 -179 53 -23 134 -42 134 -31 0 3 -11 22 -24 42 -14
19 -36 66 -51 103 -24 61 -32 72 -79 100 -94 56 -251 244 -244 292 2 19 12 9
50 -51 62 -99 110 -153 171 -194 28 -19 52 -33 54 -31 2 2 -3 29 -12 62 -16
63 -21 136 -6 99 16 -38 90 -128 138 -167 116 -96 230 -120 296 -61 16 16 16
17 0 36 -13 14 -13 18 -3 11 8 -5 58 -12 110 -15 52 -4 127 -10 166 -14 98
-10 117 -4 142 47 l21 43 1 -33 c0 -24 -8 -42 -29 -63 -35 -34 -76 -37 -186
-14 -39 8 -86 14 -105 14 l-35 0 35 -13 c57 -21 162 -76 208 -109 51 -37 47
-40 -69 -56 -54 -7 -98 -22 -169 -58 -87 -44 -101 -48 -165 -47 -43 0 -93 8
-130 21 -33 12 -85 24 -115 27 -118 12 -349 163 -425 278 -121 182 -206 431
-192 565 3 29 2 53 -2 53 -8 0 -45 -110 -61 -185 -13 -56 1 -195 27 -280 44
-142 173 -338 317 -485 89 -90 170 -189 162 -197 -4 -4 -190 186 -256 262 -91
105 -196 277 -237 389 -8 23 -17 68 -20 101 -3 33 -7 62 -9 64 -10 10 -3 -265
7 -279 9 -12 10 -12 5 3 -4 12 -2 17 6 14 7 -2 12 -17 10 -33 -1 -16 5 -49 14
-73 13 -33 14 -45 4 -51 -9 -5 -1 -29 29 -89 72 -144 175 -268 374 -452 108
-99 139 -122 202 -148 116 -48 184 -39 255 34 36 37 36 40 -4 25 -16 -6 -26
-6 -26 0 0 5 15 13 34 19 44 12 151 82 138 90 -6 4 -4 14 5 26 16 20 16 20 9
0 -4 -11 29 15 72 58 98 95 105 95 241 27 55 -27 106 -50 115 -50 8 0 26 -5
40 -11 53 -25 141 65 176 180 15 48 20 92 20 181 l0 119 -75 -52 c-75 -51 -76
-52 -96 -122 -24 -80 -57 -122 -105 -131 -40 -7 -135 11 -192 37 -25 12 -56
18 -73 15 -16 -2 -29 0 -29 6 0 12 39 8 164 -17 129 -26 152 -18 193 65 18 36
33 71 33 78 0 8 -15 12 -42 12 l-43 0 40 23 c75 42 105 140 70 225 -19 45 -45
73 -112 123 -41 31 -55 49 -73 96 -12 32 -26 61 -32 64 -5 4 -29 2 -52 -3 -43
-10 -228 -4 -248 8 -7 4 -24 8 -38 8 -36 1 -39 16 -8 39 l28 21 20 -21 c25
-28 131 -40 204 -24 48 10 90 9 161 -5 17 -3 73 -27 125 -52 77 -37 109 -60
172 -123 42 -42 75 -79 72 -82 -3 -3 3 -10 13 -15 27 -15 71 -107 84 -177 30
-157 11 -324 -52 -464 -16 -35 -28 -65 -27 -67 2 -1 35 27 73 62 39 35 74 64
78 64 5 0 5 5 1 12 -4 6 -1 16 7 22 15 12 44 66 41 79 -1 4 2 7 7 7 12 0 8
-69 -5 -78 -5 -4 -23 -24 -38 -44 -16 -21 -33 -38 -39 -38 -19 0 -48 -44 -64
-99 -23 -83 -46 -122 -98 -170 -61 -56 -117 -81 -185 -81 -74 0 -100 8 -100
31 0 10 -13 40 -30 67 -26 42 -37 51 -94 71 -42 15 -75 21 -94 17 -36 -8 -88
-59 -165 -159 -33 -44 -80 -92 -106 -109 -44 -28 -50 -30 -126 -24 -77 5 -183
34 -212 57 -7 7 -16 10 -19 7 -9 -10 151 -87 247 -119 81 -27 104 -31 169 -27
41 3 91 12 110 20 97 43 159 62 224 68 39 4 80 11 91 15 18 7 18 6 -2 -14 -13
-12 -23 -27 -23 -33 0 -7 -17 -9 -47 -5 -45 5 -98 -6 -223 -48 -25 -8 -56 -15
-70 -15 -24 -1 -23 -1 6 -14 18 -8 35 -19 39 -25 9 -16 46 -3 67 24 26 34 79
31 101 -3 9 -15 17 -21 17 -14 0 6 11 12 25 12 31 0 214 62 330 111 257 111
334 236 335 544 0 153 14 197 25 80 10 -104 -1 -250 -24 -324 -53 -171 -146
-248 -435 -357 -161 -61 -165 -72 -7 -18 212 71 514 243 568 323 60 89 86 276
60 431 -20 116 -25 134 -53 216 -25 74 -30 104 -15 104 4 0 27 -55 49 -122 67
-205 75 -398 23 -540 l-20 -53 48 54 c27 30 64 79 82 110 33 54 34 57 34 171
0 63 -4 124 -9 135 -5 11 -11 29 -12 41 -13 102 -154 378 -184 359 -5 -3 -18
10 -29 29 -32 51 -159 167 -221 202 -30 17 -103 50 -162 74 -104 40 -110 45
-158 106 -74 94 -81 97 -202 92 -86 -3 -113 -8 -163 -31 -107 -50 -182 -147
-154 -199 14 -26 6 -32 -21 -16 -17 11 -20 19 -15 48 16 83 75 148 178 195 58
27 183 48 225 39 l27 -5 -26 23 c-22 20 -23 26 -12 37 8 7 17 10 21 6 3 -3 0
-10 -8 -15 -10 -7 17 -10 80 -10 119 -1 215 -18 353 -63 59 -19 107 -32 105
-28 -12 28 -132 190 -143 195 -29 11 -15 26 18 20 62 -11 207 -56 323 -100 65
-24 119 -43 120 -41 4 3 -52 32 -80 41 -12 4 -16 12 -12 22 6 17 -22 71 -58
113 l-21 24 35 -6 c58 -11 12 10 -74 32 -122 32 -240 44 -353 37 -57 -4 -104
-3 -107 2 -16 26 255 30 390 7 129 -22 262 -70 302 -108 36 -35 44 -60 10 -31
-23 19 -23 19 -5 -2 17 -21 51 -29 40 -10 -58 101 -143 198 -229 263 -69 52
-79 56 -154 65 -138 18 -429 -25 -531 -78 -16 -8 -38 -14 -51 -14 l-23 0 23
18 c31 24 155 69 239 88 80 17 294 30 345 20 20 -3 64 -24 99 -47 l64 -40 -40
37 c-62 56 -149 110 -225 140 -63 24 -78 26 -157 21 -140 -9 -392 -110 -477
-191 -21 -19 -54 -47 -74 -63 -117 -87 -219 -209 -247 -293 -17 -52 -40 -70
-29 -22 20 85 125 226 228 307 28 21 73 59 100 82 51 46 275 162 373 194 40
13 48 18 26 16 -18 -2 -34 0 -35 5 -2 4 -21 10 -43 11 -22 2 -51 9 -65 14 -14
6 -37 7 -52 2 -15 -4 -43 -6 -60 -3 -28 3 -50 -7 -133 -63 -87 -59 -159 -122
-325 -284 -70 -69 -136 -223 -144 -336 -3 -32 -8 -56 -13 -53 -13 8 -6 117 12
173 25 75 83 183 116 215 16 15 46 45 67 66 128 136 309 281 402 324 30 14 80
29 110 32 l55 7 -50 1 c-27 1 -57 -3 -65 -8z m-195 -110 c-3 -5 -12 -10 -18
-10 -7 0 -6 4 3 10 19 12 23 12 15 0z m248 -277 c4 -3 -15 -14 -42 -23 -110
-37 -280 -162 -347 -255 -29 -40 -42 -25 -16 17 75 120 362 305 405 261z m322
-167 c45 -19 47 -38 3 -25 -44 12 -187 11 -267 -2 -81 -13 -164 -42 -213 -74
-46 -30 -68 -33 -43 -5 41 45 206 103 320 113 98 9 168 6 200 -7z m-1075 -10
c0 -3 -4 -8 -10 -11 -5 -3 -10 -1 -10 4 0 6 5 11 10 11 6 0 10 -2 10 -4z m684
-115 c17 -19 17 -19 -1 -15 -11 3 -20 12 -20 20 0 18 0 18 21 -5z m-244 5 c0
-2 -19 -15 -43 -29 -135 -79 -214 -249 -172 -371 10 -28 13 -52 8 -57 -5 -5
-17 12 -27 42 -26 72 -18 168 20 240 36 67 124 155 167 168 38 11 47 12 47 7z
m180 -26 c0 -5 -2 -10 -4 -10 -3 0 -8 5 -11 10 -3 6 -1 10 4 10 6 0 11 -4 11
-10z m580 -11 c0 -14 -16 -11 -29 5 -10 12 -8 13 8 9 12 -3 21 -9 21 -14z m5
-49 c3 -6 -1 -7 -9 -4 -18 7 -21 14 -7 14 6 0 13 -4 16 -10z m-1258 -92 c-3
-8 -6 -5 -6 6 -1 11 2 17 5 13 3 -3 4 -12 1 -19z m87 -5 c-18 -37 -18 -124 2
-198 19 -76 79 -173 124 -202 51 -33 61 -43 55 -54 -24 -37 -120 55 -176 168
-42 84 -44 92 -44 179 0 76 3 95 19 113 27 30 38 26 20 -6z m-351 -68 c-3 -9
-8 -14 -10 -11 -3 3 -2 9 2 15 9 16 15 13 8 -4z m1099 -30 c112 -23 214 -63
233 -91 19 -29 20 -29 -42 1 -85 41 -174 67 -243 72 -53 4 -78 0 -138 -22 -41
-15 -76 -24 -79 -21 -9 9 102 60 147 67 25 3 46 7 47 8 1 0 35 -6 75 -14z
m-1092 -94 c0 -5 -7 -11 -15 -15 -9 -3 -15 0 -15 9 0 8 7 15 15 15 8 0 15 -4
15 -9z m-40 -31 c0 -5 -4 -10 -10 -10 -5 0 -10 5 -10 10 0 6 5 10 10 10 6 0
10 -4 10 -10z m1390 -32 c0 -6 -7 -5 -15 2 -8 7 -15 17 -15 22 0 6 7 5 15 -2
8 -7 15 -17 15 -22z m32 -16 c2 -4 27 -22 55 -41 64 -40 139 -120 175 -187 47
-88 86 -273 67 -319 -12 -29 -13 -27 -20 45 -23 212 -76 316 -221 430 -72 55
-93 80 -69 80 5 0 11 -3 13 -8z m103 -22 c3 -5 1 -10 -4 -10 -6 0 -11 5 -11
10 0 6 2 10 4 10 3 0 8 -4 11 -10z m-110 -55 c9 -30 15 -67 13 -82 -4 -25 -5
-24 -17 17 -8 25 -15 54 -16 65 -2 11 -6 28 -10 38 -4 10 -3 17 4 17 6 0 18
-25 26 -55z m-770 -18 c39 -19 322 -39 368 -26 42 12 47 12 47 -6 0 -23 -63
-28 -234 -18 -120 7 -170 14 -196 27 -49 26 -70 46 -63 62 5 13 9 12 27 -4 11
-11 35 -27 51 -35z m-438 -74 c-4 -3 -2 -12 4 -20 8 -9 8 -13 1 -13 -6 0 -14
5 -17 10 -6 10 2 30 12 30 4 0 3 -3 0 -7z m1583 -83 c0 -5 -4 -10 -10 -10 -5
0 -10 5 -10 10 0 6 5 10 10 10 6 0 10 -4 10 -10z m-1185 -20 c3 -5 -1 -10 -9
-10 -9 0 -16 5 -16 10 0 6 4 10 9 10 6 0 13 -4 16 -10z m545 -266 c0 -2 -7 -4
-15 -4 -8 0 -15 4 -15 10 0 5 7 7 15 4 8 -4 15 -8 15 -10z m-885 -130 c41 -12
93 -17 168 -17 105 0 137 -9 76 -21 -54 -11 -162 -6 -228 9 -66 16 -240 97
-253 118 -18 28 -3 24 85 -22 50 -27 119 -57 152 -67z m225 53 c13 4 13 3 0
-6 -13 -9 -13 -11 1 -11 18 0 73 -40 65 -47 -8 -8 -70 28 -93 55 -27 30 -30
41 -5 20 9 -9 24 -13 32 -11z m605 -27 c3 -5 2 -10 -4 -10 -5 0 -13 5 -16 10
-3 6 -2 10 4 10 5 0 13 -4 16 -10z m-995 -26 c0 -8 -4 -12 -10 -9 -5 3 -10 10
-10 16 0 5 5 9 10 9 6 0 10 -7 10 -16z m624 -16 c-3 -4 -39 -8 -81 -8 -42 0
-74 3 -71 6 4 3 36 6 72 6 53 1 66 4 66 17 0 14 2 14 9 1 6 -8 7 -18 5 -22z
m76 1 c0 -5 -5 -7 -11 -4 -6 4 -48 -29 -94 -74 -116 -114 -159 -132 -326 -139
-95 -4 -132 -2 -144 8 -8 7 -15 15 -15 19 0 3 66 6 148 6 138 0 150 2 202 26
33 16 83 55 126 98 44 44 80 71 93 71 11 0 21 -5 21 -11z m180 -50 c0 -4 -7
-6 -15 -3 -8 4 -15 10 -15 15 0 4 7 6 15 3 8 -4 15 -10 15 -15z m90 -85 c0
-11 -63 33 -72 50 -8 14 2 10 31 -13 22 -18 41 -35 41 -37z m-350 34 c0 -16
-3 -19 -11 -11 -6 6 -8 16 -5 22 11 17 16 13 16 -11z m894 -83 c-4 -8 -11 -15
-16 -15 -6 0 -5 6 2 15 7 8 14 15 16 15 2 0 1 -7 -2 -15z m-1304 -49 c0 -3 -4
-8 -10 -11 -5 -3 -10 -1 -10 4 0 6 5 11 10 11 6 0 10 -2 10 -4z m1252 -38 c-8
-8 -9 -4 -5 13 4 13 8 18 11 10 2 -7 -1 -18 -6 -23z m-892 12 c0 -5 -5 -10
-11 -10 -5 0 -7 5 -4 10 3 6 8 10 11 10 2 0 4 -4 4 -10z m-185 -110 c3 -5 2
-10 -4 -10 -5 0 -13 5 -16 10 -3 6 -2 10 4 10 5 0 13 -4 16 -10z m570 -20 c3
-6 -1 -7 -9 -4 -18 7 -21 14 -7 14 6 0 13 -4 16 -10z m-60 -100 c3 -5 1 -10
-4 -10 -6 0 -11 5 -11 10 0 6 2 10 4 10 3 0 8 -4 11 -10z m-28 -53 c4 -5 -1
-7 -12 -5 -11 1 -19 -1 -18 -7 10 -66 9 -70 -20 -68 -15 1 -25 -2 -22 -7 3 -4
-1 -10 -9 -13 -8 -3 -17 1 -20 9 -8 22 -8 24 9 24 8 0 15 7 15 16 0 8 -4 13
-8 10 -4 -2 -14 0 -22 5 -12 8 -11 9 5 7 15 -2 19 2 18 18 -2 17 3 20 37 20
21 -1 42 -5 47 -9z m143 -38 c0 -4 -3 -10 -8 -13 -9 -5 -44 19 -36 26 7 8 44
-3 44 -13z m-137 -9 c3 -13 0 -20 -9 -20 -8 0 -14 9 -14 20 0 11 4 20 9 20 5
0 11 -9 14 -20z m67 -10 c0 -4 -9 -6 -21 -3 -15 4 -17 8 -8 14 14 8 29 3 29
-11z m303 3 c-7 -2 -19 -2 -25 0 -7 3 -2 5 12 5 14 0 19 -2 13 -5z m-843 -49
c14 -4 39 -7 55 -6 22 2 26 0 16 -7 -11 -7 -4 -11 25 -16 47 -8 87 -23 63 -24
-27 -1 -167 37 -196 54 -28 16 -18 16 37 -1z m640 2 c0 -3 -4 -8 -10 -11 -5
-3 -10 -1 -10 4 0 6 5 11 10 11 6 0 10 -2 10 -4z m-33 -41 c0 -8 -4 -15 -9
-15 -4 0 -8 7 -8 15 0 8 4 15 8 15 5 0 9 -7 9 -15z m63 5 c0 -5 -4 -10 -10
-10 -5 0 -10 5 -10 10 0 6 5 10 10 10 6 0 10 -4 10 -10z"/>
<path d="M2910 4991 c-11 -7 -1 -11 38 -17 29 -4 55 -10 58 -15 2 -4 11 -6 18
-3 8 3 17 1 21 -5 3 -6 16 -11 29 -11 12 0 31 -6 42 -14 13 -10 34 -13 69 -10
38 4 67 0 120 -20 38 -14 71 -24 72 -22 6 5 -171 84 -227 101 -67 20 -219 30
-240 16z m225 -37 c39 -13 61 -23 50 -24 -12 0 -59 13 -105 30 -97 34 -51 29
55 -6z"/>
<path d="M2223 4953 c-18 -9 -33 -20 -33 -24 0 -7 58 21 79 38 12 9 -18 0 -46
-14z"/>
<path d="M2840 4960 c-9 -6 -10 -10 -3 -10 6 0 15 5 18 10 8 12 4 12 -15 0z"/>
<path d="M2155 4892 c-27 -24 -70 -72 -64 -72 3 0 25 20 49 45 44 45 53 60 15
27z"/>
<path d="M1940 4755 c-13 -14 -22 -27 -19 -29 2 -2 14 10 27 25 29 36 24 38
-8 4z"/>
<path d="M3730 4406 c0 -2 11 -6 25 -8 13 -3 22 -1 19 3 -5 9 -44 13 -44 5z"/>
<path d="M3820 4387 c0 -4 16 -29 36 -57 20 -27 33 -50 29 -50 -4 0 -2 -6 4
-13 6 -8 8 -17 5 -20 -3 -3 -1 -12 5 -19 7 -7 18 -22 26 -33 18 -23 -14 64
-44 123 -18 34 -61 83 -61 69z"/>
<path d="M3790 4353 c0 -7 5 -15 10 -18 6 -4 8 -10 5 -15 -3 -4 5 -6 17 -2 16
4 18 7 8 10 -8 2 -21 11 -27 20 -7 9 -13 11 -13 5z"/>
<path d="M3845 4290 c3 -5 8 -10 11 -10 2 0 4 5 4 10 0 6 -5 10 -11 10 -5 0
-7 -4 -4 -10z"/>
<path d="M3825 4262 c28 -16 51 -28 53 -27 1 1 0 10 -4 19 -3 9 -11 13 -16 10
-6 -4 -13 -2 -17 3 -3 6 -19 13 -36 17 -24 5 -20 1 20 -22z"/>
<path d="M3514 4123 c13 -21 30 -58 37 -81 11 -38 22 -50 88 -95 83 -55 223
-189 264 -252 15 -22 37 -71 50 -109 29 -83 33 -74 43 100 l7 121 -34 45 c-44
57 -84 92 -189 163 -85 58 -251 145 -277 145 -9 0 -6 -12 11 -37z"/>
<path d="M3585 3933 c16 -38 35 -107 35 -126 0 -10 19 -40 43 -67 63 -71 111
-159 153 -283 30 -90 38 -132 43 -217 l6 -105 22 51 c31 70 50 128 67 205 14
58 14 72 1 122 -27 104 -80 193 -168 282 -74 74 -178 155 -200 155 -5 0 -6 -8
-2 -17z"/>
<path d="M3255 3625 c-4 -11 -15 -40 -26 -65 -16 -38 -18 -55 -11 -114 21
-171 -20 -329 -111 -424 -46 -47 -43 -59 22 -81 66 -22 88 -15 117 35 104 178
123 460 41 620 -21 41 -26 46 -32 29z"/>
<path d="M1472 3575 c0 -16 2 -22 5 -12 2 9 2 23 0 30 -3 6 -5 -1 -5 -18z"/>
<path d="M1480 3530 c0 -17 17 -47 23 -40 2 3 -2 16 -10 30 -7 14 -13 18 -13
10z"/>
<path d="M2781 474 c0 -11 3 -14 6 -6 3 7 2 16 -1 19 -3 4 -6 -2 -5 -13z"/>
</g>
</svg>
