<?xml version="1.0" standalone="no"?>
<!DOCTYPE svg PUBLIC "-//W3C//DTD SVG 20010904//EN"
 "http://www.w3.org/TR/2001/REC-SVG-20010904/DTD/svg10.dtd">
<svg version="1.0" xmlns="http://www.w3.org/2000/svg"
 width="375.000000pt" height="297.000000pt" viewBox="0 0 375.000000 297.000000"
 preserveAspectRatio="xMidYMid meet">

<g transform="translate(0.000000,297.000000) scale(0.100000,-0.100000)"
fill="#000000" stroke="none">
<path d="M1624 2586 c-17 -13 -17 -17 -6 -37 13 -20 12 -21 -7 -16 -25 6 -40
-11 -20 -24 11 -7 11 -9 1 -9 -7 0 -15 7 -19 16 -3 9 -12 13 -22 8 -9 -4 -28
-6 -44 -5 -15 1 -26 -2 -25 -6 1 -5 -2 -23 -6 -40 -5 -23 -13 -33 -27 -33 -10
0 -19 -4 -19 -10 0 -5 -8 -10 -18 -10 -12 0 -27 -18 -43 -50 -13 -27 -27 -50
-31 -50 -5 0 -8 -8 -8 -18 0 -10 -4 -22 -9 -27 -13 -14 -30 -162 -24 -205 4
-19 14 -46 24 -60 11 -14 23 -45 27 -70 8 -43 37 -90 54 -90 5 0 8 33 8 74 0
64 3 75 19 81 10 3 24 19 31 35 8 19 22 31 41 35 16 4 29 10 29 15 0 4 19 12
43 18 46 12 117 3 142 -18 17 -14 20 -40 4 -40 -5 0 -7 -4 -4 -10 8 -13 3 -13
-84 6 -71 14 -76 14 -100 -4 -14 -10 -27 -30 -29 -43 -3 -23 0 -25 54 -27 60
-3 104 16 104 43 0 20 8 19 39 -8 32 -27 36 -60 16 -117 -19 -55 -19 -110 1
-138 21 -30 52 -28 64 3 5 14 16 25 25 25 12 0 13 3 3 19 -17 28 -49 34 -55
10 -3 -10 -9 -16 -14 -13 -13 8 -11 47 5 69 17 26 45 112 48 150 1 17 -7 44
-18 60 -11 17 -24 39 -30 49 -11 22 -25 31 -69 47 -30 11 -30 11 40 35 39 14
101 39 139 56 75 34 159 48 170 29 4 -6 0 -14 -8 -17 -9 -3 -16 -10 -16 -14 0
-8 74 -23 120 -25 14 -1 34 -6 45 -12 11 -6 25 -8 32 -6 6 2 14 -10 18 -27 4
-17 20 -40 36 -52 16 -12 29 -28 29 -35 0 -8 5 -11 10 -8 17 10 21 -19 11 -66
-9 -40 -4 -71 6 -41 3 6 8 10 13 7 4 -3 6 3 3 14 -2 10 3 42 11 71 21 70 21
159 1 166 -8 4 -15 18 -15 33 0 33 -14 56 -29 47 -7 -5 -8 -1 -4 10 4 11 2 15
-4 11 -5 -3 -16 5 -23 18 -14 27 -36 35 -26 10 3 -8 3 -15 1 -15 -9 0 -53 46
-64 68 -13 24 -46 30 -54 10 -3 -7 -6 -4 -6 6 -1 20 -1 20 -15 1 -13 -18 -13
-16 -6 20 4 22 11 48 15 57 4 11 0 20 -14 28 -17 8 -22 8 -26 -3 -8 -19 -114
-15 -129 5 -8 12 -26 15 -71 13 -32 -2 -79 3 -104 11 -38 11 -47 11 -65 -2
-28 -19 -36 -18 -36 6 0 24 -9 25 -36 6z m-207 -518 c-3 -8 -6 -5 -6 6 -1 11
2 17 5 13 3 -3 4 -12 1 -19z m142 -37 c-13 -11 -26 -17 -28 -15 -5 5 30 33 43
34 4 0 -2 -9 -15 -19z"/>
<path d="M2180 2451 c0 -5 5 -13 10 -16 6 -3 10 -2 10 4 0 5 -4 13 -10 16 -5
3 -10 2 -10 -4z"/>
<path d="M1998 2182 c-57 -3 -86 -20 -73 -43 5 -7 26 -9 64 -5 31 3 77 5 104
6 26 0 47 4 47 9 0 16 -85 36 -142 33z"/>
<path d="M1940 2056 c-15 -15 -12 -43 4 -49 9 -4 16 3 20 16 6 21 7 21 20 5
17 -22 62 -23 74 -2 8 14 10 14 25 0 17 -17 37 -21 37 -8 0 26 -159 59 -180
38z"/>
<path d="M2261 2025 c0 -16 4 -50 8 -75 l8 -45 1 55 c0 30 -3 64 -8 75 -7 17
-9 16 -9 -10z"/>
<path d="M1340 1858 c1 -13 7 -36 14 -53 l12 -30 7 33 c7 34 -6 72 -23 72 -6
0 -10 -10 -10 -22z"/>
<path d="M1870 1810 c0 -5 4 -10 9 -10 6 0 13 5 16 10 3 6 -1 10 -9 10 -9 0
-16 -4 -16 -10z"/>
<path d="M1384 1764 c-5 -36 -3 -49 10 -62 15 -15 16 -15 16 5 0 12 -5 25 -10
28 -6 4 -8 21 -4 41 3 19 4 34 1 34 -3 0 -9 -21 -13 -46z"/>
<path d="M1430 1626 c0 -20 5 -36 10 -36 6 0 10 13 10 29 0 17 -4 33 -10 36
-6 4 -10 -8 -10 -29z"/>
<path d="M1751 1646 c-14 -8 -30 -12 -36 -9 -20 7 -36 -22 -27 -47 6 -16 11
-19 16 -12 4 7 20 12 36 12 15 0 30 6 33 14 3 8 31 16 69 21 63 8 63 8 23 15
-22 4 -51 10 -65 13 -14 4 -35 1 -49 -7z"/>
<path d="M1735 1371 c-3 -5 -1 -12 5 -16 6 -4 8 -10 6 -13 -2 -4 4 -19 14 -32
18 -24 19 -24 39 -6 l20 19 -20 28 c-20 28 -52 38 -64 20z"/>
<path d="M1501 1110 c-9 -32 -10 -45 0 -56 6 -7 15 -11 20 -8 5 3 9 0 9 -5 0
-6 4 -11 9 -11 9 0 0 55 -17 99 -8 21 -9 20 -21 -19z"/>
<path d="M1455 1110 c-10 -11 -15 -26 -11 -37 6 -14 10 -12 26 15 11 18 20 35
20 37 0 11 -18 4 -35 -15z"/>
<path d="M2290 1091 c0 -25 6 -27 13 -6 4 8 2 17 -3 20 -6 4 -10 -3 -10 -14z"/>
<path d="M2494 872 c0 -69 -5 -97 -24 -135 -28 -59 -34 -53 139 -139 116 -58
129 -67 233 -171 86 -87 108 -115 104 -131 -10 -36 -19 -242 -12 -270 l6 -26
175 0 c96 0 175 3 175 6 0 12 -81 276 -111 360 -33 94 -92 218 -108 228 -5 3
-3 -18 5 -46 7 -29 13 -69 13 -88 -1 -28 -4 -24 -13 25 -15 74 -36 135 -53
156 -7 9 -11 18 -8 21 4 3 -16 28 -42 54 -34 35 -78 64 -148 97 -55 27 -107
52 -116 57 -8 4 -51 23 -95 40 -43 18 -83 37 -88 41 -24 22 -31 5 -32 -79z
m87 -48 c-24 -7 -53 -16 -64 -20 -13 -4 -18 -2 -15 7 5 16 41 27 88 27 l35 0
-44 -14z m99 -87 c0 -2 -15 -14 -32 -27 l-33 -23 24 26 c21 23 41 35 41 24z
m360 -199 c0 -15 -4 -30 -10 -33 -6 -4 -10 10 -10 34 0 21 -3 48 -6 58 -3 10
2 7 10 -7 8 -14 15 -37 16 -52z"/>
<path d="M1231 927 c-6 -8 -30 -20 -53 -27 -24 -7 -59 -23 -78 -35 -19 -12
-66 -40 -105 -63 -38 -22 -79 -48 -90 -57 -20 -16 -20 -16 2 -5 20 9 24 7 39
-21 16 -32 9 -48 -20 -49 -5 0 -36 -17 -67 -37 -54 -35 -86 -77 -103 -135 -7
-24 -23 -23 -31 2 -3 11 -10 20 -15 20 -8 0 -50 -96 -83 -190 -18 -48 -97
-315 -97 -324 0 -3 70 -6 156 -6 l156 0 -6 73 c-3 39 -7 123 -8 186 l-3 115
75 63 c75 63 189 129 265 153 90 29 128 50 116 64 -6 7 -9 15 -6 17 9 10 -22
92 -36 95 -8 1 -22 5 -31 9 -10 4 -18 3 -18 -3 0 -6 -2 -17 -5 -24 -4 -9 7
-18 30 -27 19 -7 35 -17 35 -22 0 -13 -13 -11 -66 11 -81 35 -117 40 -143 19
-29 -23 -67 -25 -75 -3 -13 33 38 63 73 44 16 -8 19 -8 15 3 -3 10 5 16 27 21
44 9 49 8 49 -8 0 -7 6 -19 14 -25 11 -9 16 -6 24 19 12 34 20 36 48 15 10 -8
22 -15 26 -15 5 0 7 36 5 80 -1 44 -3 80 -3 80 -1 0 -7 -6 -13 -13z m-145
-298 l19 -22 -32 17 c-35 18 -41 26 -20 26 8 0 22 -10 33 -21z"/>
<path d="M995 750 c-8 -13 -1 -24 14 -19 6 3 7 10 2 18 -6 10 -10 10 -16 1z"/>
<path d="M875 699 c-9 -14 0 -22 18 -17 13 2 13 5 2 15 -10 9 -16 9 -20 2z"/>
<path d="M840 683 c0 -4 5 -15 10 -23 8 -13 10 -13 10 2 0 9 -4 20 -10 23 -5
3 -10 3 -10 -2z"/>
<path d="M796 625 c4 -8 8 -15 10 -15 2 0 4 7 4 15 0 8 -4 15 -10 15 -5 0 -7
-7 -4 -15z"/>
<path d="M1475 629 c-11 -7 -40 -31 -65 -54 -25 -23 -82 -67 -127 -99 -53 -36
-104 -84 -145 -134 -150 -182 -167 -214 -168 -304 l0 -38 885 0 c844 0 885 1
885 18 0 22 -47 187 -60 210 -5 10 -21 43 -35 74 -17 37 -46 75 -84 110 -90
83 -218 184 -268 210 -43 22 -46 22 -57 5 -97 -156 -111 -172 -141 -171 -73 3
-205 17 -205 23 1 3 23 31 50 61 45 50 48 55 29 58 -25 4 -39 -13 -39 -47 0
-16 -4 -21 -14 -18 -8 3 -17 1 -20 -6 -4 -7 -4 1 -2 16 3 22 0 27 -12 22 -12
-4 -13 -3 -2 10 11 13 8 15 -21 14 -69 -1 -73 -9 -29 -64 l40 -50 -78 -13
c-42 -7 -87 -14 -100 -15 -18 -2 -38 17 -95 93 -40 52 -79 96 -87 97 -8 2 -24
-2 -35 -8z"/>
</g>
</svg>
